<svg xmlns="http://www.w3.org/2000/svg" viewBox="0 0 600 400"><rect width="600" height="400" fill="#10101e" rx="20"/><rect x="20" y="20" width="560" height="120" rx="14" fill="#161628"/><rect x="40" y="40" width="40" height="40" rx="20" fill="#14b49d" opacity=".8"/><rect x="96" y="42" width="120" height="12" rx="6" fill="#f2f2ff" opacity=".8"/><rect x="96" y="62" width="80" height="8" rx="4" fill="#7070a0" opacity=".6"/><rect x="40" y="96" width="480" height="8" rx="4" fill="#f2f2ff" opacity=".5"/><rect x="40" y="112" width="360" height="8" rx="4" fill="#f2f2ff" opacity=".3"/><rect x="20" y="160" width="560" height="120" rx="14" fill="#161628"/><rect x="40" y="180" width="40" height="40" rx="20" fill="#a855f7" opacity=".8"/><rect x="96" y="182" width="140" height="12" rx="6" fill="#f2f2ff" opacity=".8"/><rect x="96" y="202" width="90" height="8" rx="4" fill="#7070a0" opacity=".6"/><rect x="40" y="236" width="440" height="8" rx="4" fill="#f2f2ff" opacity=".5"/><rect x="40" y="252" width="320" height="8" rx="4" fill="#f2f2ff" opacity=".3"/><rect x="20" y="300" width="560" height="80" rx="14" fill="#161628" opacity=".6"/></svg>