<svg xmlns="http://www.w3.org/2000/svg" width="512" height="512" viewBox="0 0 512 512">
  <defs>
    <linearGradient id="bg512" x1="0%" y1="0%" x2="100%" y2="100%">
      <stop offset="0%" style="stop-color:#04040a"/>
      <stop offset="100%" style="stop-color:#1a1a2e"/>
    </linearGradient>
    <linearGradient id="g512" x1="0%" y1="0%" x2="100%" y2="100%">
      <stop offset="0%" style="stop-color:#c026d3"/>
      <stop offset="50%" style="stop-color:#7c3aed"/>
      <stop offset="100%" style="stop-color:#14b49d"/>
    </linearGradient>
    <radialGradient id="glow512" cx="50%" cy="40%" r="60%">
      <stop offset="0%" style="stop-color:#c026d3;stop-opacity:0.2"/>
      <stop offset="100%" style="stop-color:#c026d3;stop-opacity:0"/>
    </radialGradient>
  </defs>
  <rect width="512" height="512" fill="url(#bg512)"/>
  <rect width="512" height="512" fill="url(#glow512)"/>
  <!-- Large squid logo centered -->
  <g transform="translate(152, 120)">
    <rect width="208" height="208" rx="52" fill="url(#g512)"/>
    <circle cx="104" cy="78" r="39" fill="white"/>
    <ellipse cx="104" cy="120" rx="27.5" ry="17.4" fill="white" opacity="0.88"/>
    <ellipse cx="63" cy="149" rx="11" ry="6.9" fill="white" opacity="0.65" transform="rotate(-25 63 149)"/>
    <ellipse cx="84" cy="160.5" rx="11" ry="6.9" fill="white" opacity="0.72" transform="rotate(-10 84 160.5)"/>
    <ellipse cx="104" cy="164.8" rx="11" ry="6.9" fill="white" opacity="0.78"/>
    <ellipse cx="124" cy="160.5" rx="11" ry="6.9" fill="white" opacity="0.72" transform="rotate(10 124 160.5)"/>
    <ellipse cx="145" cy="149" rx="11" ry="6.9" fill="white" opacity="0.65" transform="rotate(25 145 149)"/>
    <circle cx="88" cy="69.5" r="8.1" fill="#c026d3"/>
    <circle cx="120" cy="69.5" r="8.1" fill="#c026d3"/>
    <circle cx="88" cy="67.2" r="4.1" fill="white"/>
    <circle cx="120" cy="67.2" r="4.1" fill="white"/>
  </g>
  <!-- App name -->
  <text x="256" y="382" font-family="Arial, sans-serif" font-weight="800" font-size="52" fill="white" text-anchor="middle">Squids</text>
  <text x="256" y="430" font-family="Arial, sans-serif" font-size="22" fill="rgba(255,255,255,0.45)" text-anchor="middle">Africa's Social Platform</text>
</svg>
