<svg xmlns="http://www.w3.org/2000/svg" viewBox="0 0 1200 630" fill="none">
  <defs>
    <linearGradient id="bg" x1="0" y1="0" x2="1200" y2="630" gradientUnits="userSpaceOnUse">
      <stop offset="0%" stop-color="#07070f"/>
      <stop offset="60%" stop-color="#0a0f1c"/>
      <stop offset="100%" stop-color="#0d1520"/>
    </linearGradient>
    <linearGradient id="sq" x1="0" y1="0" x2="72" y2="72" gradientUnits="userSpaceOnUse">
      <stop offset="0%" stop-color="#14b49d"/>
      <stop offset="100%" stop-color="#059478"/>
    </linearGradient>
    <radialGradient id="g1" cx="25%" cy="40%" r="50%">
      <stop offset="0%" stop-color="#14b49d" stop-opacity=".18"/>
      <stop offset="100%" stop-color="#14b49d" stop-opacity="0"/>
    </radialGradient>
    <radialGradient id="g2" cx="80%" cy="70%" r="40%">
      <stop offset="0%" stop-color="#a855f7" stop-opacity=".12"/>
      <stop offset="100%" stop-color="#a855f7" stop-opacity="0"/>
    </radialGradient>
  </defs>
  <rect width="1200" height="630" fill="url(#bg)"/>
  <rect width="1200" height="630" fill="url(#g1)"/>
  <rect width="1200" height="630" fill="url(#g2)"/>
  <rect x="80" y="195" width="80" height="80" rx="22" fill="url(#sq)"/>
  <circle cx="120" cy="224" r="15" fill="white"/>
  <ellipse cx="120" cy="240" rx="10.5" ry="6.5" fill="white" opacity=".88"/>
  <ellipse cx="106" cy="251" rx="4" ry="2.5" fill="white" opacity=".65" transform="rotate(-25 106 251)"/>
  <ellipse cx="120" cy="257" rx="4" ry="2.5" fill="white" opacity=".78"/>
  <ellipse cx="134" cy="251" rx="4" ry="2.5" fill="white" opacity=".65" transform="rotate(25 134 251)"/>
  <text x="182" y="258" font-family="system-ui,sans-serif" font-size="58" font-weight="900" fill="white" letter-spacing="-2">Squids</text>
  <text x="80" y="310" font-family="system-ui,sans-serif" font-size="20" font-weight="500" fill="#14b49d">Africa&#x2019;s Social Platform &#xB7; app.squids.co.za</text>
  <line x1="80" y1="345" x2="480" y2="345" stroke="rgba(20,180,157,0.25)" stroke-width="1"/>
  <text x="80" y="400" font-family="system-ui,sans-serif" font-size="42" font-weight="800" fill="white">First 200 accounts get</text>
  <text x="80" y="460" font-family="system-ui,sans-serif" font-size="46" font-weight="900" fill="#14b49d">Verified Badge — Free</text>
  <text x="80" y="510" font-family="system-ui,sans-serif" font-size="18" fill="rgba(255,255,255,0.4)">Connect · Share · Discover Africa&#x2019;s stories</text>
  <rect x="750" y="120" width="380" height="420" rx="24" fill="rgba(255,255,255,0.03)" stroke="rgba(255,255,255,0.08)" stroke-width="1"/>
  <circle cx="790" cy="165" r="18" fill="#14b49d" opacity=".7"/>
  <rect x="820" y="152" width="100" height="10" rx="5" fill="rgba(255,255,255,0.15)"/>
  <rect x="820" y="168" width="70" height="8" rx="4" fill="rgba(255,255,255,0.08)"/>
  <rect x="770" y="200" width="340" height="60" rx="12" fill="rgba(255,255,255,0.04)"/>
  <rect x="770" y="275" width="340" height="60" rx="12" fill="rgba(255,255,255,0.04)"/>
  <rect x="770" y="350" width="340" height="60" rx="12" fill="rgba(255,255,255,0.04)"/>
</svg>
